<svg version="1.1" xmlns="http://www.w3.org/2000/svg" xmlns:xlink="http://www.w3.org/1999/xlink" x="0px" y="0px"
	 viewBox="0 0 141.7 141.7" enable-background="new 0 0 141.7 141.7" xml:space="preserve">
	<g>
		<rect x="0" y="0" fill="#FFE100" width="141.7" height="141.7"></rect>
		<g>
			<path fill="#3284BF" d="M104.7,56.2h17.8c0-0.4,0.1-1.1,0.1-1.9c0-13.3-10.5-22.7-24.3-22.7s-24.4,9.6-24.4,23.2
				c0,14.4,11.4,18.8,21.1,22.5c6.6,2.6,10.1,4.7,10.1,8.6c0,4.1-2.6,6.9-6.8,6.9c-4.3,0-7.1-3.3-7.1-7.9V84H72.9
				c0,0.4-0.1,1.1-0.1,1.7c0,14.4,10.8,24,25.4,24c14.4,0,25.4-9.8,25.4-24c0-15.1-11.3-19.7-21.3-23.3c-7.4-2.7-10.7-4.6-10.7-8.6
				c0-3.6,2.6-6.2,6.3-6.2c4,0,6.8,2.9,6.8,7.6V56.2z"></path>
			<rect x="47.8" y="32.2" fill="#3284BF" width="19.1" height="24"></rect>
			<rect x="19.1" y="32.2" fill="#3284BF" width="19.1" height="24"></rect>
			<rect x="19.1" y="65.7" fill="#3284BF" width="19.1" height="43.1"></rect>
			<rect x="47.8" y="65.7" fill="#3284BF" width="19.1" height="43.1"></rect>
		</g>
	</g>
</svg>