<?xml version="1.0" encoding="utf-8"?>
<!-- Generator: Adobe Illustrator 18.0.0, SVG Export Plug-In . SVG Version: 6.00 Build 0)  -->
<!DOCTYPE svg PUBLIC "-//W3C//DTD SVG 1.1//EN" "http://www.w3.org/Graphics/SVG/1.1/DTD/svg11.dtd">
<svg version="1.1" id="Layer_1" xmlns="http://www.w3.org/2000/svg" xmlns:xlink="http://www.w3.org/1999/xlink" x="0px" y="0px"
	 viewBox="0 0 277.3 276.7" enable-background="new 0 0 277.3 276.7" xml:space="preserve">
<g>
	<g>
		<rect x="25.9" y="134.9" width="31" height="6.5"/>
		<rect x="220.5" y="134.9" width="31" height="6.5"/>
	</g>
	<g>
		<rect x="135.5" y="25" width="6.5" height="31"/>
		<rect x="135.5" y="220.4" width="6.5" height="31"/>
	</g>
	<circle cx="138.7" cy="138.2" r="8.6"/>
	<rect x="135" y="74.8" width="7.5" height="63.4"/>
	<rect x="138.7" y="136.4" width="95.2" height="3.7"/>
	<g>
		<path d="M138.7,275.6C63,275.6,1.3,213.9,1.3,138.2C1.3,62.4,63,0.8,138.7,0.8s137.4,61.6,137.4,137.4
			C276.1,213.9,214.5,275.6,138.7,275.6z M138.7,14.5C70.5,14.5,15,70,15,138.2s55.5,123.7,123.7,123.7s123.7-55.5,123.7-123.7
			S206.9,14.5,138.7,14.5z"/>
	</g>
	<circle fill="#FFFFFF" cx="138.7" cy="138.2" r="0.9"/>
</g>
</svg>
