<?xml version="1.0" encoding="utf-8"?>
<!-- Generator: Adobe Illustrator 19.1.0, SVG Export Plug-In . SVG Version: 6.00 Build 0)  -->
<svg version="1.1" id="Layer_1" xmlns="http://www.w3.org/2000/svg" xmlns:xlink="http://www.w3.org/1999/xlink" x="0px" y="0px"
	 viewBox="0 0 261.6 69" style="enable-background:new 0 0 261.6 69;" xml:space="preserve">
<style type="text/css">
	.st0{fill:#231F20;}
	.st1{font-family:'NirmalaUI-Bold';}
	.st2{font-size:64.4625px;}
	.st3{font-size:33.0916px;}
</style>
<text transform="matrix(1 0 0 1 35.6716 50.6306)" class="st0 st1 st2">Tech</text>
<text transform="matrix(1 0 0 1 186.4912 68.9604)" class="st0 st1 st3">Talks</text>
<g>
	<g>
		<path class="st0" d="M32.7,54.1c0,0-26.8-21.9-29.4-24.2s-2.6-2.9,0-5.1S32.7,0,32.7,0v7.5l-21,19.7v0.2l21,19.2V54.1z"/>
	</g>
	<g>
		<path class="st0" d="M175.1,54.1c0,0,26.2-21.9,28.7-24.2s2.6-2.9,0-5.1S175.1,0,175.1,0v7.5l20.5,19.7v0.2l-20.5,19.2V54.1z"/>
	</g>
</g>
</svg>
