<?xml version="1.0" encoding="utf-8"?>
<!-- Generator: Adobe Illustrator 18.0.0, SVG Export Plug-In . SVG Version: 6.00 Build 0)  -->
<!DOCTYPE svg PUBLIC "-//W3C//DTD SVG 1.1//EN" "http://www.w3.org/Graphics/SVG/1.1/DTD/svg11.dtd">
<svg version="1.1" id="Layer_1" xmlns="http://www.w3.org/2000/svg" xmlns:xlink="http://www.w3.org/1999/xlink" x="0px" y="0px"
	 viewBox="0 0 277.3 276.7" enable-background="new 0 0 277.3 276.7" xml:space="preserve">
<g>
	<path d="M138.9,0.7C33,2.7,72.4,105.2,72.4,105.2l66.6,133l66.6-133C205.5,105.2,244.8-1.3,138.9,0.7z M138.9,86.1
		c-10.7,0-19.3-8.6-19.3-19.3c0-10.7,8.6-19.3,19.3-19.3c10.7,0,19.3,8.6,19.3,19.3C158.2,77.5,149.6,86.1,138.9,86.1z"/>
	<path d="M156.2,211c9.4,11.3,9.4,11.3,9.4,11.3s61.7,14.1,39,28.4c-22.6,14.3-66,13.2-66,13.2s-43.3,1.1-66-13.2
		c-22.6-14.3,39-28.4,39-28.4s0,0,9.4-11.3c-37.6,12.5-74.2,19.2-62.9,42.4c11.3,23.2,80.4,22.6,80.4,22.6s69.1,0.5,80.4-22.6
		S193.8,223.5,156.2,211z"/>
</g>
</svg>
