<?xml version="1.0" encoding="utf-8"?>
<!-- Generator: Adobe Illustrator 19.1.0, SVG Export Plug-In . SVG Version: 6.00 Build 0)  -->
<svg version="1.1" id="Layer_1" xmlns="http://www.w3.org/2000/svg" xmlns:xlink="http://www.w3.org/1999/xlink" x="0px" y="0px"
	 viewBox="0 0 100 100" style="enable-background:new 0 0 100 100;" xml:space="preserve">
<path id="user" d="M0,94c0-1.3,0-2.6,0-3.9c0.3-1.4,0.5-2.9,0.9-4.3c1.6-5.9,5.1-10.6,9.6-14.6c5.1-4.5,11.1-7.5,17.6-9.6
	c1.8-0.6,3.6-1.1,5.5-1.6c-0.3-0.2-0.5-0.3-0.7-0.5C22.2,52.1,17.4,42,18.9,29.1C20.4,16.4,30,5.9,42.4,2.9c1.7-0.4,3.4-0.6,5.1-0.9
	c1.7,0,3.3,0,5,0c0.6,0.1,1.2,0.2,1.8,0.3c14.9,2,26.5,14.4,27.1,29.4c0.5,11.8-4.4,21.2-14.1,27.9c-0.2,0.1-0.4,0.3-0.7,0.5
	c1.9,0.5,3.7,1,5.5,1.6c7,2.3,13.4,5.6,18.8,10.7c4.3,4.1,7.4,8.8,8.7,14.7c0.2,1,0.4,2,0.6,3.1c0,1.3,0,2.6,0,3.9
	c-0.1,1.4-0.2,2.7-0.3,4.1c-33.1,0-66.3,0-99.4,0C0.2,96.7,0.1,95.3,0,94z"/>
</svg>
